Genre:Comedy
Language:English
IMDb:http://www.imdb.com/title/tt0970866/
Source:SERENiTY/Own&Imagine Thx.


Format : AVI
Format/Info : Audio Video Interleave
File size : 958 MiB
Duration : 1h 33mn
Overall bit rate : 1 434 Kbps


Video
Codec ID/Hint : XviD
Duration : 1h 33mn
Bit rate : 1 232 Kbps
Width : 720 pixels
Height : 384 pixels
Display aspect ratio : 1.875
Frame rate : 25.000 fps
Color space : YUV
Chroma subsampling : 4:2:0
Bit depth : 8 bits
Scan type : Progressive
Bits/(Pixel*Frame) : 0.178
Stream size : 823 MiB (86%)
Writing library : XviD 1.2.1 (UTC 2008-12-04)

Audio
ID : 1
Format : MPEG Audio
Format version : Version 1
Format profile : Layer 3
Codec ID : 55
Codec ID/Hint : MP3
Duration : 1h 33mn
Bit rate mode : Constant
Bit rate : 192 Kbps
Channel(s) : 2 channels
Sampling rate : 44.1 KHz
Stream size : 128 MiB (13%)
Alignment : Split accross interleaves
Interleave, duration : 40 ms (1.00 video frame)
Interleave, preload duration : 500 ms



Plot:
Family-patriarch Jack Byrnes wants to appoint a successor. Does his son-in-law, the "male nurse", Greg Focker have what it takes?





================================== 
http://thepiratebay.org/user/hiest
==================================




Screens:
 
http://rapidhdd.com/images/257439Little.Fockers.2010.TS.XviD.Feel-Free.avi_snapshot_00.09.50_%5B2010.12.27_10.58.01%5D.png
 
http://www.rapidhdd.com/images/139686Little.Fockers.2010.TS.XviD.Feel-Free.avi_snapshot_00.21.25_%5B2010.12.27_11.02.01%5D.png
 
http://www.rapidhdd.com/images/25760Little.Fockers.2010.TS.XviD.Feel-Free.avi_snapshot_00.37.13_%5B2010.12.27_10.57.35%5D.png
 
http://www.rapidhdd.com/images/408857Little.Fockers.2010.TS.XviD.Feel-Free.avi_snapshot_00.59.47_%5B2010.12.27_10.58.06%5D.png
 
http://www.rapidhdd.com/images/701765Little.Fockers.2010.TS.XviD.Feel-Free.avi_snapshot_01.19.19_%5B2010.12.27_10.58.29%5D.png